<?xml version="1.0" encoding="UTF-8" standalone="no"?>
<!DOCTYPE svg PUBLIC "-//W3C//DTD SVG 1.1//EN"
 "http://www.w3.org/Graphics/SVG/1.1/DTD/svg11.dtd">
<!-- Generated by graphviz version 6.0.1 (20220911.1526)
 -->
<!-- Title: inheritance89bd98568d Pages: 1 -->
<svg width="325pt" height="27pt"
 viewBox="0.00 0.00 325.00 27.00" xmlns="http://www.w3.org/2000/svg" xmlns:xlink="http://www.w3.org/1999/xlink">
<g id="graph0" class="graph" transform="scale(1 1) rotate(0) translate(4 23)">
<title>inheritance89bd98568d</title>
<!-- EnergySite -->
<g id="node1" class="node">
<title>EnergySite</title>
<g id="a_node1"><a xlink:href="../teslajsonpy/teslajsonpy.html#teslajsonpy.EnergySite" xlink:title="Base class to represents a Tesla energy site." target="_top">
<polygon fill="white" stroke="black" stroke-width="0.5" points="65,-19 0,-19 0,0 65,0 65,-19"/>
<text text-anchor="middle" x="32.5" y="-7" font-family="Vera Sans, DejaVu Sans, Liberation Sans, Arial, Helvetica, sans" font-size="10.00">EnergySite</text>
</a>
</g>
</g>
<!-- PowerwallSite -->
<g id="node2" class="node">
<title>PowerwallSite</title>
<g id="a_node2"><a xlink:href="../teslajsonpy/teslajsonpy.html#teslajsonpy.PowerwallSite" xlink:title="Represents a Tesla Energy Powerwall site." target="_top">
<polygon fill="white" stroke="black" stroke-width="0.5" points="180,-19 101,-19 101,0 180,0 180,-19"/>
<text text-anchor="middle" x="140.5" y="-7" font-family="Vera Sans, DejaVu Sans, Liberation Sans, Arial, Helvetica, sans" font-size="10.00">PowerwallSite</text>
</a>
</g>
</g>
<!-- EnergySite&#45;&gt;PowerwallSite -->
<g id="edge1" class="edge">
<title>EnergySite&#45;&gt;PowerwallSite</title>
<path fill="none" stroke="black" stroke-width="0.5" d="M65.02,-9.5C74.67,-9.5 85.46,-9.5 95.77,-9.5"/>
<polygon fill="black" stroke="black" stroke-width="0.5" points="95.79,-11.25 100.79,-9.5 95.79,-7.75 95.79,-11.25"/>
</g>
<!-- SolarPowerwallSite -->
<g id="node3" class="node">
<title>SolarPowerwallSite</title>
<g id="a_node3"><a xlink:href="../teslajsonpy/teslajsonpy.html#teslajsonpy.SolarPowerwallSite" xlink:title="Represents a Tesla Energy Solar site with Powerwall(s)." target="_top">
<polygon fill="white" stroke="black" stroke-width="0.5" points="317,-19 216,-19 216,0 317,0 317,-19"/>
<text text-anchor="middle" x="266.5" y="-7" font-family="Vera Sans, DejaVu Sans, Liberation Sans, Arial, Helvetica, sans" font-size="10.00">SolarPowerwallSite</text>
</a>
</g>
</g>
<!-- PowerwallSite&#45;&gt;SolarPowerwallSite -->
<g id="edge2" class="edge">
<title>PowerwallSite&#45;&gt;SolarPowerwallSite</title>
<path fill="none" stroke="black" stroke-width="0.5" d="M180.05,-9.5C189.71,-9.5 200.25,-9.5 210.53,-9.5"/>
<polygon fill="black" stroke="black" stroke-width="0.5" points="210.55,-11.25 215.55,-9.5 210.55,-7.75 210.55,-11.25"/>
</g>
</g>
</svg>
